# File created by Blade
# Date/Time:  Thu Sep 25 17:14:50 2014
# Frame Rate: 120.000 fps
#------------------------------------------------------
:FULLY-SPECIFIED
:DEGREES
273
root 43.701179 32.988498 -2.562852 177.972802 -82.836695 -163.773074
Spine -5.065938 9.239024 3.891838
Head 6.282097 -5.248826 -0.737282
LeftShoulder -18.046357 24.081231 15.074669
LeftArm 24.259237 -20.282039 -51.252479
LeftForeArm -22.450909 0.000000 11.672788
LeftHand -23.358889 -0.000000 -8.888844
LeftHandThumb1 -26.253704 0.000000 33.147579
RightShoulder -20.548229 12.439727 -33.470505
RightArm -16.096492 22.172189 46.850245
RightForeArm 11.882842 -0.000000 21.288858
RightHand -2.066077 0.000000 -13.632204
RightHandThumb1 -24.326973 -0.000000 -32.862282
LeftUpLeg -13.779195 10.760737 -0.031790
LeftLeg 38.337433 -0.000000 -0.000000
LeftFoot -18.347925 7.250296 -35.019209
LeftToeBase -11.636079 -0.000000 0.000000
RightUpLeg -21.928951 -4.177047 3.824143
RightLeg 21.905632 -0.000000 -0.000000
RightFoot -14.893193 -11.319086 -6.335782
RightToeBase -1.845914 -0.000000 0.000000
274
root 43.866726 32.983728 -2.538229 177.229817 -82.793485 -163.148444
Spine -5.252158 9.020334 3.991455
Head 6.836227 -5.192978 -0.764021
LeftShoulder -18.187208 23.847259 15.483489
LeftArm 24.056936 -21.652178 -50.535889
LeftForeArm -23.003232 -0.000000 11.619528
LeftHand -23.246396 -0.000000 -8.755946
LeftHandThumb1 -26.253704 0.000000 33.147579
RightShoulder -20.641882 12.714009 -33.863214
RightArm -15.822589 23.012399 45.700436
RightForeArm 12.294356 -0.000000 21.584365
RightHand -1.773314 -0.000000 -13.637292
RightHandThumb1 -24.326973 -0.000000 -32.862282
LeftUpLeg -12.142452 10.417527 -0.082649
LeftLeg 35.827232 -0.000000 -0.000000
LeftFoot -18.287375 7.864728 -35.872551
LeftToeBase -11.690502 -0.000000 0.000000
RightUpLeg -22.180155 -4.111014 3.907429
RightLeg 22.048732 -0.000000 -0.000000
RightFoot -14.750669 -11.279197 -6.144545
RightToeBase -1.698862 -0.000000 0.000000
275
root 44.033226 32.980940 -2.505765 176.649194 -82.722796 -162.684955
Spine -5.445016 8.832393 4.090515
Head 7.347381 -5.163466 -0.769493
LeftShoulder -18.280817 23.670834 15.884955
LeftArm 23.906351 -22.982020 -49.816576
LeftForeArm -23.700617 -0.000000 11.531970
LeftHand -23.039823 0.000000 -8.578849
LeftHandThumb1 -26.253704 0.000000 33.147579
RightShoulder -20.655371 13.074367 -34.260219
RightArm -15.646104 23.675679 44.525175
RightForeArm 12.955196 -0.000000 21.925939
RightHand -1.449079 -0.000000 -13.871157
RightHandThumb1 -24.326973 -0.000000 -32.862282
LeftUpLeg -10.521907 10.156974 -0.155719
LeftLeg 33.163321 -0.000000 -0.000000
LeftFoot -17.779764 8.747815 -36.254463
LeftToeBase -10.686521 -0.000000 0.000000
RightUpLeg -22.627201 -4.311424 4.096650
RightLeg 22.512596 -0.000000 -0.000000
RightFoot -14.521600 -11.318608 -5.843691
RightToeBase -1.885522 -0.000000 0.000000
276
root 44.214113 32.974821 -2.477963 175.758921 -82.695841 -161.801327
Spine -5.799707 8.681817 4.191780
Head 7.338076 -5.113899 -0.473195
LeftShoulder -18.133426 23.359873 16.499094
LeftArm 23.556546 -24.293236 -49.123939
LeftForeArm -24.338356 -0.000000 11.489523
LeftHand -22.837217 0.000000 -8.311246
LeftHandThumb1 -26.253704 0.000000 33.147579
RightShoulder -20.651716 13.312643 -34.618405
RightArm -15.453642 24.343113 43.354368
RightForeArm 13.150196 -0.000000 22.358204
RightHand -1.333707 -0.000000 -14.174236
RightHandThumb1 -24.326973 -0.000000 -32.862282
LeftUpLeg -9.107974 9.691927 -0.226179
LeftLeg 30.516345 -0.000000 -0.000000
LeftFoot -17.197727 9.482779 -36.498838
LeftToeBase -12.119109 -0.000000 0.000000
RightUpLeg -22.715846 -3.857888 3.961961
RightLeg 22.184665 -0.000000 -0.000000
RightFoot -14.537482 -10.787065 -5.773626
RightToeBase -1.167195 -0.000000 0.000000
277
root 44.400987 32.967762 -2.447961 174.481653 -82.686467 -160.491452
Spine -6.156087 8.521273 4.368370
Head 7.292581 -5.082482 -0.213157
LeftShoulder -18.039417 23.164619 17.042268
LeftArm 23.407324 -25.671208 -48.499800
LeftForeArm -24.960070 -0.000000 11.433536
LeftHand -22.749363 0.000000 -8.133580
LeftHandThumb1 -26.253704 0.000000 33.147579
RightShoulder -20.620369 13.562914 -35.025681
RightArm -15.281481 25.127837 42.214914
RightForeArm 13.748867 -0.000000 22.725329
RightHand -0.912649 -0.000000 -14.089344
RightHandThumb1 -24.326973 -0.000000 -32.862282
LeftUpLeg -7.884804 9.385502 -0.271620
LeftLeg 28.128258 -0.000000 -0.000000
LeftFoot -16.597152 9.921698 -36.302494
LeftToeBase -16.453061 -0.000000 0.000000
RightUpLeg -23.060223 -3.777025 4.109787
RightLeg 22.148645 -0.000000 -0.000000
RightFoot -14.331688 -10.722216 -5.645311
RightToeBase -0.974118 -0.000000 0.000000
278
root 44.600998 32.960969 -2.416277 173.222358 -82.673678 -159.133543
Spine -6.556115 8.321299 4.556102
Head 7.310993 -5.053774 -0.008181
LeftShoulder -17.932871 22.951488 17.549364
LeftArm 23.211461 -27.116178 -47.848593
LeftForeArm -25.519956 -0.000000 11.424756
LeftHand -22.688948 -0.000000 -7.930222
LeftHandThumb1 -26.253704 0.000000 33.147579
RightShoulder -20.472026 13.862757 -35.456403
RightArm -15.199364 25.968372 41.106666
RightForeArm 14.290026 -0.000000 23.199404
RightHand -0.661662 -0.000000 -14.055132
RightHandThumb1 -24.326973 -0.000000 -32.862282
LeftUpLeg -6.810698 8.895652 -0.343570
LeftLeg 25.727625 -0.000000 -0.000000
LeftFoot -16.225130 10.451388 -35.599163
LeftToeBase -21.603783 -0.000000 0.000000
RightUpLeg -23.446530 -3.597297 4.209927
RightLeg 22.056483 -0.000000 -0.000000
RightFoot -14.136134 -10.545706 -5.507498
RightToeBase -0.778398 -0.000000 0.000000
